<mxfile host="app.diagrams.net" modified="2023-11-21T16:54:24.002Z" agent="Mozilla/5.0 (Windows NT 10.0; Win64; x64) AppleWebKit/537.36 (KHTML, like Gecko) Chrome/119.0.0.0 Safari/537.36 Edg/119.0.0.0" etag="vaPE7ECazqD_SNOOLaoD" version="21.6.5" type="onedrive">
  <diagram name="Page-1" id="AjOIRz4amnO38Ra5ALn6">
    <mxGraphModel grid="1" page="1" gridSize="10" guides="1" tooltips="1" connect="1" arrows="1" fold="1" pageScale="1" pageWidth="850" pageHeight="1100" math="0" shadow="0">
      <root>
        <mxCell id="0" />
        <mxCell id="1" parent="0" />
        <mxCell id="a7ovupwX-SFJbcE_QBLs-1" value="League" style="rounded=1;whiteSpace=wrap;html=1;" vertex="1" parent="1">
          <mxGeometry x="220" y="490" width="80" height="30" as="geometry" />
        </mxCell>
        <mxCell id="a7ovupwX-SFJbcE_QBLs-3" value="Match" style="rounded=1;whiteSpace=wrap;html=1;" vertex="1" parent="1">
          <mxGeometry x="80" y="340" width="80" height="30" as="geometry" />
        </mxCell>
        <mxCell id="a7ovupwX-SFJbcE_QBLs-4" value="Team" style="rounded=1;whiteSpace=wrap;html=1;" vertex="1" parent="1">
          <mxGeometry x="590" y="250" width="80" height="30" as="geometry" />
        </mxCell>
        <mxCell id="a7ovupwX-SFJbcE_QBLs-5" value="Coach" style="rounded=1;whiteSpace=wrap;html=1;" vertex="1" parent="1">
          <mxGeometry x="590" y="460" width="80" height="30" as="geometry" />
        </mxCell>
        <mxCell id="a7ovupwX-SFJbcE_QBLs-6" value="Player" style="rounded=1;whiteSpace=wrap;html=1;" vertex="1" parent="1">
          <mxGeometry x="320" y="135" width="80" height="30" as="geometry" />
        </mxCell>
        <mxCell id="a7ovupwX-SFJbcE_QBLs-7" value="Stadium" style="rounded=1;whiteSpace=wrap;html=1;" vertex="1" parent="1">
          <mxGeometry x="120" y="480" width="80" height="30" as="geometry" />
        </mxCell>
        <mxCell id="a7ovupwX-SFJbcE_QBLs-8" value="Name" style="ellipse;whiteSpace=wrap;html=1;" vertex="1" parent="1">
          <mxGeometry x="230" y="80" width="60" height="40" as="geometry" />
        </mxCell>
        <mxCell id="a7ovupwX-SFJbcE_QBLs-9" value="Weight" style="ellipse;whiteSpace=wrap;html=1;" vertex="1" parent="1">
          <mxGeometry x="420" y="40" width="60" height="40" as="geometry" />
        </mxCell>
        <mxCell id="a7ovupwX-SFJbcE_QBLs-10" value="Position" style="ellipse;whiteSpace=wrap;html=1;" vertex="1" parent="1">
          <mxGeometry x="280" y="40" width="60" height="40" as="geometry" />
        </mxCell>
        <mxCell id="a7ovupwX-SFJbcE_QBLs-11" value="Height" style="ellipse;whiteSpace=wrap;html=1;" vertex="1" parent="1">
          <mxGeometry x="350" y="40" width="60" height="40" as="geometry" />
        </mxCell>
        <mxCell id="a7ovupwX-SFJbcE_QBLs-12" value="DOB" style="ellipse;whiteSpace=wrap;html=1;" vertex="1" parent="1">
          <mxGeometry x="470" y="125" width="60" height="40" as="geometry" />
        </mxCell>
        <mxCell id="a7ovupwX-SFJbcE_QBLs-13" value="Nation" style="ellipse;whiteSpace=wrap;html=1;" vertex="1" parent="1">
          <mxGeometry x="450" y="80" width="60" height="40" as="geometry" />
        </mxCell>
        <mxCell id="a7ovupwX-SFJbcE_QBLs-14" value="&lt;u&gt;PlayerId&lt;/u&gt;" style="ellipse;whiteSpace=wrap;html=1;" vertex="1" parent="1">
          <mxGeometry x="190" y="120" width="60" height="40" as="geometry" />
        </mxCell>
        <mxCell id="a7ovupwX-SFJbcE_QBLs-16" value="" style="endArrow=none;html=1;rounded=0;entryX=0;entryY=0.5;entryDx=0;entryDy=0;exitX=1;exitY=1;exitDx=0;exitDy=0;" edge="1" parent="1" source="a7ovupwX-SFJbcE_QBLs-14" target="a7ovupwX-SFJbcE_QBLs-6">
          <mxGeometry width="50" height="50" relative="1" as="geometry">
            <mxPoint x="400" y="340" as="sourcePoint" />
            <mxPoint x="450" y="290" as="targetPoint" />
          </mxGeometry>
        </mxCell>
        <mxCell id="a7ovupwX-SFJbcE_QBLs-17" value="" style="endArrow=none;html=1;rounded=0;entryX=0.25;entryY=0;entryDx=0;entryDy=0;exitX=1;exitY=1;exitDx=0;exitDy=0;" edge="1" parent="1" source="a7ovupwX-SFJbcE_QBLs-8" target="a7ovupwX-SFJbcE_QBLs-6">
          <mxGeometry width="50" height="50" relative="1" as="geometry">
            <mxPoint x="220" y="160" as="sourcePoint" />
            <mxPoint x="330" y="160" as="targetPoint" />
            <Array as="points" />
          </mxGeometry>
        </mxCell>
        <mxCell id="a7ovupwX-SFJbcE_QBLs-18" value="" style="endArrow=none;html=1;rounded=0;entryX=0.39;entryY=-0.02;entryDx=0;entryDy=0;exitX=1;exitY=1;exitDx=0;exitDy=0;entryPerimeter=0;" edge="1" parent="1" source="a7ovupwX-SFJbcE_QBLs-10" target="a7ovupwX-SFJbcE_QBLs-6">
          <mxGeometry width="50" height="50" relative="1" as="geometry">
            <mxPoint x="230" y="170" as="sourcePoint" />
            <mxPoint x="340" y="170" as="targetPoint" />
          </mxGeometry>
        </mxCell>
        <mxCell id="a7ovupwX-SFJbcE_QBLs-19" value="" style="endArrow=none;html=1;rounded=0;exitX=0.373;exitY=1.02;exitDx=0;exitDy=0;exitPerimeter=0;" edge="1" parent="1" source="a7ovupwX-SFJbcE_QBLs-11" target="a7ovupwX-SFJbcE_QBLs-6">
          <mxGeometry width="50" height="50" relative="1" as="geometry">
            <mxPoint x="240" y="180" as="sourcePoint" />
            <mxPoint x="350" y="180" as="targetPoint" />
          </mxGeometry>
        </mxCell>
        <mxCell id="a7ovupwX-SFJbcE_QBLs-21" value="" style="endArrow=none;html=1;rounded=0;entryX=0;entryY=1;entryDx=0;entryDy=0;exitX=0.66;exitY=-0.047;exitDx=0;exitDy=0;exitPerimeter=0;" edge="1" parent="1" source="a7ovupwX-SFJbcE_QBLs-6" target="a7ovupwX-SFJbcE_QBLs-9">
          <mxGeometry width="50" height="50" relative="1" as="geometry">
            <mxPoint x="250" y="190" as="sourcePoint" />
            <mxPoint x="360" y="190" as="targetPoint" />
          </mxGeometry>
        </mxCell>
        <mxCell id="a7ovupwX-SFJbcE_QBLs-22" value="" style="endArrow=none;html=1;rounded=0;exitX=1;exitY=0;exitDx=0;exitDy=0;" edge="1" parent="1" source="a7ovupwX-SFJbcE_QBLs-6" target="a7ovupwX-SFJbcE_QBLs-13">
          <mxGeometry width="50" height="50" relative="1" as="geometry">
            <mxPoint x="260" y="200" as="sourcePoint" />
            <mxPoint x="370" y="200" as="targetPoint" />
          </mxGeometry>
        </mxCell>
        <mxCell id="a7ovupwX-SFJbcE_QBLs-23" value="" style="endArrow=none;html=1;rounded=0;entryX=0;entryY=0.5;entryDx=0;entryDy=0;exitX=1;exitY=0.75;exitDx=0;exitDy=0;" edge="1" parent="1" source="a7ovupwX-SFJbcE_QBLs-6" target="a7ovupwX-SFJbcE_QBLs-12">
          <mxGeometry width="50" height="50" relative="1" as="geometry">
            <mxPoint x="270" y="210" as="sourcePoint" />
            <mxPoint x="380" y="210" as="targetPoint" />
          </mxGeometry>
        </mxCell>
        <mxCell id="a7ovupwX-SFJbcE_QBLs-25" value="&lt;u&gt;Teamid&lt;/u&gt;" style="ellipse;whiteSpace=wrap;html=1;" vertex="1" parent="1">
          <mxGeometry x="640" y="160" width="60" height="40" as="geometry" />
        </mxCell>
        <mxCell id="a7ovupwX-SFJbcE_QBLs-26" value="DOF" style="ellipse;whiteSpace=wrap;html=1;" vertex="1" parent="1">
          <mxGeometry x="620" y="320" width="60" height="40" as="geometry" />
        </mxCell>
        <mxCell id="a7ovupwX-SFJbcE_QBLs-27" value="Country" style="ellipse;whiteSpace=wrap;html=1;" vertex="1" parent="1">
          <mxGeometry x="675" y="300" width="60" height="40" as="geometry" />
        </mxCell>
        <mxCell id="a7ovupwX-SFJbcE_QBLs-28" value="City" style="ellipse;whiteSpace=wrap;html=1;" vertex="1" parent="1">
          <mxGeometry x="690" y="230" width="60" height="40" as="geometry" />
        </mxCell>
        <mxCell id="a7ovupwX-SFJbcE_QBLs-29" value="Name" style="ellipse;whiteSpace=wrap;html=1;" vertex="1" parent="1">
          <mxGeometry x="680" y="190" width="60" height="40" as="geometry" />
        </mxCell>
        <mxCell id="a7ovupwX-SFJbcE_QBLs-30" value="" style="endArrow=none;html=1;rounded=0;entryX=0;entryY=1;entryDx=0;entryDy=0;" edge="1" parent="1" target="a7ovupwX-SFJbcE_QBLs-25">
          <mxGeometry width="50" height="50" relative="1" as="geometry">
            <mxPoint x="639" y="250" as="sourcePoint" />
            <mxPoint x="330" y="160" as="targetPoint" />
          </mxGeometry>
        </mxCell>
        <mxCell id="a7ovupwX-SFJbcE_QBLs-31" value="" style="endArrow=none;html=1;rounded=0;entryX=0.75;entryY=0;entryDx=0;entryDy=0;exitX=0;exitY=0.5;exitDx=0;exitDy=0;" edge="1" parent="1" source="a7ovupwX-SFJbcE_QBLs-29" target="a7ovupwX-SFJbcE_QBLs-4">
          <mxGeometry width="50" height="50" relative="1" as="geometry">
            <mxPoint x="270" y="170" as="sourcePoint" />
            <mxPoint x="340" y="170" as="targetPoint" />
          </mxGeometry>
        </mxCell>
        <mxCell id="a7ovupwX-SFJbcE_QBLs-32" value="" style="endArrow=none;html=1;rounded=0;entryX=0;entryY=0.5;entryDx=0;entryDy=0;exitX=1;exitY=0.75;exitDx=0;exitDy=0;" edge="1" parent="1" source="a7ovupwX-SFJbcE_QBLs-4" target="a7ovupwX-SFJbcE_QBLs-28">
          <mxGeometry width="50" height="50" relative="1" as="geometry">
            <mxPoint x="320" y="190" as="sourcePoint" />
            <mxPoint x="350" y="180" as="targetPoint" />
          </mxGeometry>
        </mxCell>
        <mxCell id="a7ovupwX-SFJbcE_QBLs-33" value="" style="endArrow=none;html=1;rounded=0;entryX=0.047;entryY=0.29;entryDx=0;entryDy=0;entryPerimeter=0;" edge="1" parent="1" target="a7ovupwX-SFJbcE_QBLs-27">
          <mxGeometry width="50" height="50" relative="1" as="geometry">
            <mxPoint x="660" y="280" as="sourcePoint" />
            <mxPoint x="360" y="190" as="targetPoint" />
          </mxGeometry>
        </mxCell>
        <mxCell id="a7ovupwX-SFJbcE_QBLs-34" value="" style="endArrow=none;html=1;rounded=0;entryX=0.5;entryY=0;entryDx=0;entryDy=0;" edge="1" parent="1" source="a7ovupwX-SFJbcE_QBLs-4" target="a7ovupwX-SFJbcE_QBLs-26">
          <mxGeometry width="50" height="50" relative="1" as="geometry">
            <mxPoint x="300" y="200" as="sourcePoint" />
            <mxPoint x="650" y="330" as="targetPoint" />
          </mxGeometry>
        </mxCell>
        <mxCell id="a7ovupwX-SFJbcE_QBLs-36" value="thidau" style="rhombus;whiteSpace=wrap;html=1;" vertex="1" parent="1">
          <mxGeometry x="470" y="185" width="90" height="50" as="geometry" />
        </mxCell>
        <mxCell id="a7ovupwX-SFJbcE_QBLs-38" value="" style="shape=link;html=1;rounded=0;" edge="1" parent="1" source="a7ovupwX-SFJbcE_QBLs-6">
          <mxGeometry width="100" relative="1" as="geometry">
            <mxPoint x="370" y="310" as="sourcePoint" />
            <mxPoint x="430" y="180" as="targetPoint" />
            <Array as="points" />
          </mxGeometry>
        </mxCell>
        <mxCell id="a7ovupwX-SFJbcE_QBLs-41" value="" style="shape=link;html=1;rounded=0;entryX=0;entryY=0.5;entryDx=0;entryDy=0;exitX=1;exitY=1;exitDx=0;exitDy=0;" edge="1" parent="1" source="a7ovupwX-SFJbcE_QBLs-36" target="a7ovupwX-SFJbcE_QBLs-4">
          <mxGeometry width="100" relative="1" as="geometry">
            <mxPoint x="370" y="310" as="sourcePoint" />
            <mxPoint x="470" y="310" as="targetPoint" />
            <Array as="points" />
          </mxGeometry>
        </mxCell>
        <mxCell id="a7ovupwX-SFJbcE_QBLs-127" value="N" style="edgeLabel;html=1;align=center;verticalAlign=middle;resizable=0;points=[];" connectable="0" vertex="1" parent="a7ovupwX-SFJbcE_QBLs-41">
          <mxGeometry x="0.0705" relative="1" as="geometry">
            <mxPoint as="offset" />
          </mxGeometry>
        </mxCell>
        <mxCell id="a7ovupwX-SFJbcE_QBLs-42" value="N" style="text;html=1;strokeColor=none;fillColor=none;align=center;verticalAlign=middle;whiteSpace=wrap;rounded=0;" vertex="1" parent="1">
          <mxGeometry x="410" y="170" width="60" height="30" as="geometry" />
        </mxCell>
        <mxCell id="a7ovupwX-SFJbcE_QBLs-44" value="Value" style="ellipse;whiteSpace=wrap;html=1;" vertex="1" parent="1">
          <mxGeometry x="600" y="125" width="60" height="40" as="geometry" />
        </mxCell>
        <mxCell id="a7ovupwX-SFJbcE_QBLs-45" value="Nam" style="ellipse;whiteSpace=wrap;html=1;" vertex="1" parent="1">
          <mxGeometry x="540" y="110" width="60" height="40" as="geometry" />
        </mxCell>
        <mxCell id="a7ovupwX-SFJbcE_QBLs-46" value="" style="endArrow=none;html=1;rounded=0;entryX=0.5;entryY=0;entryDx=0;entryDy=0;exitX=0;exitY=1;exitDx=0;exitDy=0;" edge="1" parent="1" source="a7ovupwX-SFJbcE_QBLs-45" target="a7ovupwX-SFJbcE_QBLs-36">
          <mxGeometry width="50" height="50" relative="1" as="geometry">
            <mxPoint x="400" y="340" as="sourcePoint" />
            <mxPoint x="450" y="290" as="targetPoint" />
          </mxGeometry>
        </mxCell>
        <mxCell id="a7ovupwX-SFJbcE_QBLs-47" value="" style="endArrow=none;html=1;rounded=0;exitX=1;exitY=0.5;exitDx=0;exitDy=0;" edge="1" parent="1" source="a7ovupwX-SFJbcE_QBLs-36" target="a7ovupwX-SFJbcE_QBLs-44">
          <mxGeometry width="50" height="50" relative="1" as="geometry">
            <mxPoint x="400" y="340" as="sourcePoint" />
            <mxPoint x="450" y="290" as="targetPoint" />
          </mxGeometry>
        </mxCell>
        <mxCell id="a7ovupwX-SFJbcE_QBLs-48" value="Nation" style="ellipse;whiteSpace=wrap;html=1;" vertex="1" parent="1">
          <mxGeometry x="460" y="520" width="60" height="40" as="geometry" />
        </mxCell>
        <mxCell id="a7ovupwX-SFJbcE_QBLs-49" value="Ex" style="ellipse;whiteSpace=wrap;html=1;" vertex="1" parent="1">
          <mxGeometry x="540" y="520" width="60" height="40" as="geometry" />
        </mxCell>
        <mxCell id="a7ovupwX-SFJbcE_QBLs-50" value="Name" style="ellipse;whiteSpace=wrap;html=1;" vertex="1" parent="1">
          <mxGeometry x="610" y="520" width="60" height="40" as="geometry" />
        </mxCell>
        <mxCell id="a7ovupwX-SFJbcE_QBLs-51" value="&lt;u&gt;CoachId&lt;/u&gt;" style="ellipse;whiteSpace=wrap;html=1;" vertex="1" parent="1">
          <mxGeometry x="690" y="520" width="60" height="40" as="geometry" />
        </mxCell>
        <mxCell id="a7ovupwX-SFJbcE_QBLs-54" value="" style="endArrow=none;html=1;rounded=0;entryX=0.5;entryY=0;entryDx=0;entryDy=0;exitX=0.75;exitY=1;exitDx=0;exitDy=0;" edge="1" parent="1" source="a7ovupwX-SFJbcE_QBLs-5" target="a7ovupwX-SFJbcE_QBLs-51">
          <mxGeometry width="50" height="50" relative="1" as="geometry">
            <mxPoint x="400" y="340" as="sourcePoint" />
            <mxPoint x="450" y="290" as="targetPoint" />
          </mxGeometry>
        </mxCell>
        <mxCell id="a7ovupwX-SFJbcE_QBLs-55" value="" style="endArrow=none;html=1;rounded=0;exitX=0.5;exitY=1;exitDx=0;exitDy=0;entryX=0.5;entryY=0;entryDx=0;entryDy=0;" edge="1" parent="1" source="a7ovupwX-SFJbcE_QBLs-5" target="a7ovupwX-SFJbcE_QBLs-50">
          <mxGeometry width="50" height="50" relative="1" as="geometry">
            <mxPoint x="400" y="340" as="sourcePoint" />
            <mxPoint x="450" y="290" as="targetPoint" />
          </mxGeometry>
        </mxCell>
        <mxCell id="a7ovupwX-SFJbcE_QBLs-57" value="" style="endArrow=none;html=1;rounded=0;entryX=0.5;entryY=0;entryDx=0;entryDy=0;exitX=0.25;exitY=1;exitDx=0;exitDy=0;" edge="1" parent="1" source="a7ovupwX-SFJbcE_QBLs-5" target="a7ovupwX-SFJbcE_QBLs-49">
          <mxGeometry width="50" height="50" relative="1" as="geometry">
            <mxPoint x="400" y="340" as="sourcePoint" />
            <mxPoint x="450" y="290" as="targetPoint" />
          </mxGeometry>
        </mxCell>
        <mxCell id="a7ovupwX-SFJbcE_QBLs-58" value="" style="endArrow=none;html=1;rounded=0;exitX=0;exitY=1;exitDx=0;exitDy=0;" edge="1" parent="1" source="a7ovupwX-SFJbcE_QBLs-5" target="a7ovupwX-SFJbcE_QBLs-48">
          <mxGeometry width="50" height="50" relative="1" as="geometry">
            <mxPoint x="400" y="340" as="sourcePoint" />
            <mxPoint x="450" y="290" as="targetPoint" />
          </mxGeometry>
        </mxCell>
        <mxCell id="a7ovupwX-SFJbcE_QBLs-60" value="huanluyen" style="rhombus;whiteSpace=wrap;html=1;" vertex="1" parent="1">
          <mxGeometry x="600" y="370" width="90" height="50" as="geometry" />
        </mxCell>
        <mxCell id="a7ovupwX-SFJbcE_QBLs-61" value="" style="shape=link;html=1;rounded=0;entryX=0.5;entryY=1;entryDx=0;entryDy=0;exitX=0.5;exitY=0;exitDx=0;exitDy=0;" edge="1" parent="1" source="a7ovupwX-SFJbcE_QBLs-5" target="a7ovupwX-SFJbcE_QBLs-60">
          <mxGeometry width="100" relative="1" as="geometry">
            <mxPoint x="370" y="310" as="sourcePoint" />
            <mxPoint x="470" y="310" as="targetPoint" />
          </mxGeometry>
        </mxCell>
        <mxCell id="a7ovupwX-SFJbcE_QBLs-129" value="N" style="edgeLabel;html=1;align=center;verticalAlign=middle;resizable=0;points=[];" connectable="0" vertex="1" parent="a7ovupwX-SFJbcE_QBLs-61">
          <mxGeometry x="0.1803" y="1" relative="1" as="geometry">
            <mxPoint as="offset" />
          </mxGeometry>
        </mxCell>
        <mxCell id="a7ovupwX-SFJbcE_QBLs-62" value="" style="shape=link;html=1;rounded=0;entryX=0.25;entryY=1;entryDx=0;entryDy=0;exitX=0;exitY=0;exitDx=0;exitDy=0;" edge="1" parent="1" source="a7ovupwX-SFJbcE_QBLs-60" target="a7ovupwX-SFJbcE_QBLs-4">
          <mxGeometry width="100" relative="1" as="geometry">
            <mxPoint x="370" y="310" as="sourcePoint" />
            <mxPoint x="470" y="310" as="targetPoint" />
            <Array as="points">
              <mxPoint x="590" y="340" />
            </Array>
          </mxGeometry>
        </mxCell>
        <mxCell id="a7ovupwX-SFJbcE_QBLs-128" value="N" style="edgeLabel;html=1;align=center;verticalAlign=middle;resizable=0;points=[];" connectable="0" vertex="1" parent="a7ovupwX-SFJbcE_QBLs-62">
          <mxGeometry x="0.1283" y="3" relative="1" as="geometry">
            <mxPoint as="offset" />
          </mxGeometry>
        </mxCell>
        <mxCell id="a7ovupwX-SFJbcE_QBLs-65" value="Quality" style="ellipse;whiteSpace=wrap;html=1;" vertex="1" parent="1">
          <mxGeometry x="280" y="540" width="60" height="40" as="geometry" />
        </mxCell>
        <mxCell id="a7ovupwX-SFJbcE_QBLs-66" value="Name" style="ellipse;whiteSpace=wrap;html=1;" vertex="1" parent="1">
          <mxGeometry x="220" y="540" width="60" height="40" as="geometry" />
        </mxCell>
        <mxCell id="a7ovupwX-SFJbcE_QBLs-67" value="&lt;u&gt;Leagueid&lt;/u&gt;" style="ellipse;whiteSpace=wrap;html=1;" vertex="1" parent="1">
          <mxGeometry x="160" y="540" width="60" height="40" as="geometry" />
        </mxCell>
        <mxCell id="a7ovupwX-SFJbcE_QBLs-69" value="" style="endArrow=none;html=1;rounded=0;exitX=0;exitY=1;exitDx=0;exitDy=0;entryX=1;entryY=0;entryDx=0;entryDy=0;" edge="1" parent="1" source="a7ovupwX-SFJbcE_QBLs-1" target="a7ovupwX-SFJbcE_QBLs-67">
          <mxGeometry width="50" height="50" relative="1" as="geometry">
            <mxPoint x="400" y="340" as="sourcePoint" />
            <mxPoint x="450" y="290" as="targetPoint" />
          </mxGeometry>
        </mxCell>
        <mxCell id="a7ovupwX-SFJbcE_QBLs-70" value="" style="endArrow=none;html=1;rounded=0;exitX=0.5;exitY=0;exitDx=0;exitDy=0;entryX=0.5;entryY=1;entryDx=0;entryDy=0;" edge="1" parent="1" source="a7ovupwX-SFJbcE_QBLs-66" target="a7ovupwX-SFJbcE_QBLs-1">
          <mxGeometry width="50" height="50" relative="1" as="geometry">
            <mxPoint x="400" y="340" as="sourcePoint" />
            <mxPoint x="450" y="290" as="targetPoint" />
          </mxGeometry>
        </mxCell>
        <mxCell id="a7ovupwX-SFJbcE_QBLs-71" value="" style="endArrow=none;html=1;rounded=0;exitX=1;exitY=1;exitDx=0;exitDy=0;" edge="1" parent="1" source="a7ovupwX-SFJbcE_QBLs-1" target="a7ovupwX-SFJbcE_QBLs-65">
          <mxGeometry width="50" height="50" relative="1" as="geometry">
            <mxPoint x="400" y="340" as="sourcePoint" />
            <mxPoint x="450" y="290" as="targetPoint" />
          </mxGeometry>
        </mxCell>
        <mxCell id="a7ovupwX-SFJbcE_QBLs-73" value="thamgia" style="rhombus;whiteSpace=wrap;html=1;" vertex="1" parent="1">
          <mxGeometry x="370" y="450" width="90" height="50" as="geometry" />
        </mxCell>
        <mxCell id="a7ovupwX-SFJbcE_QBLs-74" value="" style="shape=link;html=1;rounded=0;exitX=1;exitY=0.5;exitDx=0;exitDy=0;" edge="1" parent="1" source="a7ovupwX-SFJbcE_QBLs-1">
          <mxGeometry width="100" relative="1" as="geometry">
            <mxPoint x="370" y="310" as="sourcePoint" />
            <mxPoint x="320" y="500" as="targetPoint" />
          </mxGeometry>
        </mxCell>
        <mxCell id="a7ovupwX-SFJbcE_QBLs-75" value="" style="shape=link;html=1;rounded=0;exitX=1;exitY=0;exitDx=0;exitDy=0;" edge="1" parent="1" source="a7ovupwX-SFJbcE_QBLs-73">
          <mxGeometry width="100" relative="1" as="geometry">
            <mxPoint x="370" y="310" as="sourcePoint" />
            <mxPoint x="490" y="400" as="targetPoint" />
          </mxGeometry>
        </mxCell>
        <mxCell id="a7ovupwX-SFJbcE_QBLs-76" value="N" style="text;html=1;strokeColor=none;fillColor=none;align=center;verticalAlign=middle;whiteSpace=wrap;rounded=0;" vertex="1" parent="1">
          <mxGeometry x="470" y="370" width="60" height="30" as="geometry" />
        </mxCell>
        <mxCell id="a7ovupwX-SFJbcE_QBLs-77" value="N" style="text;html=1;strokeColor=none;fillColor=none;align=center;verticalAlign=middle;whiteSpace=wrap;rounded=0;" vertex="1" parent="1">
          <mxGeometry x="310" y="480" width="60" height="30" as="geometry" />
        </mxCell>
        <mxCell id="a7ovupwX-SFJbcE_QBLs-78" value="year" style="ellipse;whiteSpace=wrap;html=1;" vertex="1" parent="1">
          <mxGeometry x="390" y="540" width="60" height="40" as="geometry" />
        </mxCell>
        <mxCell id="a7ovupwX-SFJbcE_QBLs-79" value="" style="endArrow=none;html=1;rounded=0;exitX=0.5;exitY=1;exitDx=0;exitDy=0;entryX=0.5;entryY=0;entryDx=0;entryDy=0;" edge="1" parent="1" source="a7ovupwX-SFJbcE_QBLs-73" target="a7ovupwX-SFJbcE_QBLs-78">
          <mxGeometry width="50" height="50" relative="1" as="geometry">
            <mxPoint x="400" y="340" as="sourcePoint" />
            <mxPoint x="450" y="290" as="targetPoint" />
          </mxGeometry>
        </mxCell>
        <mxCell id="a7ovupwX-SFJbcE_QBLs-80" value="&lt;u&gt;Stadiumid&lt;/u&gt;" style="ellipse;whiteSpace=wrap;html=1;" vertex="1" parent="1">
          <mxGeometry x="10" y="455" width="60" height="40" as="geometry" />
        </mxCell>
        <mxCell id="a7ovupwX-SFJbcE_QBLs-81" value="Name" style="ellipse;whiteSpace=wrap;html=1;" vertex="1" parent="1">
          <mxGeometry x="10" y="500" width="60" height="40" as="geometry" />
        </mxCell>
        <mxCell id="a7ovupwX-SFJbcE_QBLs-82" value="Address" style="ellipse;whiteSpace=wrap;html=1;" vertex="1" parent="1">
          <mxGeometry x="60" y="540" width="60" height="40" as="geometry" />
        </mxCell>
        <mxCell id="a7ovupwX-SFJbcE_QBLs-83" value="" style="endArrow=none;html=1;rounded=0;exitX=1;exitY=0.5;exitDx=0;exitDy=0;entryX=0;entryY=0.5;entryDx=0;entryDy=0;" edge="1" parent="1" source="a7ovupwX-SFJbcE_QBLs-80" target="a7ovupwX-SFJbcE_QBLs-7">
          <mxGeometry width="50" height="50" relative="1" as="geometry">
            <mxPoint x="400" y="340" as="sourcePoint" />
            <mxPoint x="450" y="290" as="targetPoint" />
          </mxGeometry>
        </mxCell>
        <mxCell id="a7ovupwX-SFJbcE_QBLs-84" value="" style="endArrow=none;html=1;rounded=0;exitX=1;exitY=0.5;exitDx=0;exitDy=0;entryX=0;entryY=0.5;entryDx=0;entryDy=0;" edge="1" parent="1" source="a7ovupwX-SFJbcE_QBLs-81" target="a7ovupwX-SFJbcE_QBLs-7">
          <mxGeometry width="50" height="50" relative="1" as="geometry">
            <mxPoint x="400" y="340" as="sourcePoint" />
            <mxPoint x="450" y="290" as="targetPoint" />
          </mxGeometry>
        </mxCell>
        <mxCell id="a7ovupwX-SFJbcE_QBLs-86" value="" style="endArrow=none;html=1;rounded=0;exitX=0.5;exitY=0;exitDx=0;exitDy=0;entryX=0;entryY=1;entryDx=0;entryDy=0;" edge="1" parent="1" source="a7ovupwX-SFJbcE_QBLs-82" target="a7ovupwX-SFJbcE_QBLs-7">
          <mxGeometry width="50" height="50" relative="1" as="geometry">
            <mxPoint x="400" y="340" as="sourcePoint" />
            <mxPoint x="450" y="290" as="targetPoint" />
          </mxGeometry>
        </mxCell>
        <mxCell id="a7ovupwX-SFJbcE_QBLs-88" value="cua" style="rhombus;whiteSpace=wrap;html=1;" vertex="1" parent="1">
          <mxGeometry x="510" y="630" width="90" height="50" as="geometry" />
        </mxCell>
        <mxCell id="a7ovupwX-SFJbcE_QBLs-89" value="" style="shape=link;html=1;rounded=0;exitX=0.5;exitY=1;exitDx=0;exitDy=0;entryX=0;entryY=0.5;entryDx=0;entryDy=0;" edge="1" parent="1" source="a7ovupwX-SFJbcE_QBLs-7" target="a7ovupwX-SFJbcE_QBLs-91">
          <mxGeometry width="100" relative="1" as="geometry">
            <mxPoint x="370" y="310" as="sourcePoint" />
            <mxPoint x="140" y="660" as="targetPoint" />
            <Array as="points">
              <mxPoint x="140" y="655" />
            </Array>
          </mxGeometry>
        </mxCell>
        <mxCell id="a7ovupwX-SFJbcE_QBLs-90" value="" style="shape=link;html=1;rounded=0;exitX=1;exitY=0.5;exitDx=0;exitDy=0;entryX=0.5;entryY=1;entryDx=0;entryDy=0;" edge="1" parent="1" source="a7ovupwX-SFJbcE_QBLs-88" target="a7ovupwX-SFJbcE_QBLs-92">
          <mxGeometry width="100" relative="1" as="geometry">
            <mxPoint x="370" y="310" as="sourcePoint" />
            <mxPoint x="490" y="360" as="targetPoint" />
            <Array as="points">
              <mxPoint x="800" y="655" />
            </Array>
          </mxGeometry>
        </mxCell>
        <mxCell id="a7ovupwX-SFJbcE_QBLs-91" value="1" style="text;html=1;strokeColor=none;fillColor=none;align=center;verticalAlign=middle;whiteSpace=wrap;rounded=0;" vertex="1" parent="1">
          <mxGeometry x="280" y="640" width="60" height="30" as="geometry" />
        </mxCell>
        <mxCell id="a7ovupwX-SFJbcE_QBLs-92" value="1" style="text;html=1;strokeColor=none;fillColor=none;align=center;verticalAlign=middle;whiteSpace=wrap;rounded=0;" vertex="1" parent="1">
          <mxGeometry x="770" y="550" width="60" height="30" as="geometry" />
        </mxCell>
        <mxCell id="a7ovupwX-SFJbcE_QBLs-93" value="" style="shape=link;html=1;rounded=0;entryX=0;entryY=0.5;entryDx=0;entryDy=0;exitX=1;exitY=0.5;exitDx=0;exitDy=0;" edge="1" parent="1" source="a7ovupwX-SFJbcE_QBLs-91" target="a7ovupwX-SFJbcE_QBLs-88">
          <mxGeometry width="100" relative="1" as="geometry">
            <mxPoint x="260" y="455" as="sourcePoint" />
            <mxPoint x="470" y="310" as="targetPoint" />
          </mxGeometry>
        </mxCell>
        <mxCell id="a7ovupwX-SFJbcE_QBLs-94" value="" style="shape=link;html=1;rounded=0;exitX=0.667;exitY=0.667;exitDx=0;exitDy=0;exitPerimeter=0;entryX=0;entryY=0;entryDx=0;entryDy=0;" edge="1" parent="1" source="a7ovupwX-SFJbcE_QBLs-42" target="a7ovupwX-SFJbcE_QBLs-36">
          <mxGeometry width="100" relative="1" as="geometry">
            <mxPoint x="370" y="310" as="sourcePoint" />
            <mxPoint x="470" y="310" as="targetPoint" />
          </mxGeometry>
        </mxCell>
        <mxCell id="a7ovupwX-SFJbcE_QBLs-95" value="" style="shape=link;html=1;rounded=0;entryX=1;entryY=1;entryDx=0;entryDy=0;exitX=0.5;exitY=0;exitDx=0;exitDy=0;" edge="1" parent="1" source="a7ovupwX-SFJbcE_QBLs-92" target="a7ovupwX-SFJbcE_QBLs-4">
          <mxGeometry width="100" relative="1" as="geometry">
            <mxPoint x="510" y="340" as="sourcePoint" />
            <mxPoint x="470" y="310" as="targetPoint" />
            <Array as="points">
              <mxPoint x="800" y="280" />
            </Array>
          </mxGeometry>
        </mxCell>
        <mxCell id="a7ovupwX-SFJbcE_QBLs-96" value="" style="shape=link;html=1;rounded=0;" edge="1" parent="1" source="a7ovupwX-SFJbcE_QBLs-77" target="a7ovupwX-SFJbcE_QBLs-73">
          <mxGeometry width="100" relative="1" as="geometry">
            <mxPoint x="370" y="410" as="sourcePoint" />
            <mxPoint x="470" y="410" as="targetPoint" />
          </mxGeometry>
        </mxCell>
        <mxCell id="a7ovupwX-SFJbcE_QBLs-97" value="" style="shape=link;html=1;rounded=0;exitX=0;exitY=1;exitDx=0;exitDy=0;entryX=0.75;entryY=0;entryDx=0;entryDy=0;" edge="1" parent="1" source="a7ovupwX-SFJbcE_QBLs-4" target="a7ovupwX-SFJbcE_QBLs-76">
          <mxGeometry width="100" relative="1" as="geometry">
            <mxPoint x="370" y="410" as="sourcePoint" />
            <mxPoint x="470" y="410" as="targetPoint" />
          </mxGeometry>
        </mxCell>
        <mxCell id="a7ovupwX-SFJbcE_QBLs-99" value="Result" style="ellipse;whiteSpace=wrap;html=1;" vertex="1" parent="1">
          <mxGeometry y="410" width="60" height="40" as="geometry" />
        </mxCell>
        <mxCell id="a7ovupwX-SFJbcE_QBLs-100" value="Win" style="ellipse;whiteSpace=wrap;html=1;" vertex="1" parent="1">
          <mxGeometry y="360" width="60" height="40" as="geometry" />
        </mxCell>
        <mxCell id="a7ovupwX-SFJbcE_QBLs-101" value="Ngay" style="ellipse;whiteSpace=wrap;html=1;" vertex="1" parent="1">
          <mxGeometry y="310" width="60" height="40" as="geometry" />
        </mxCell>
        <mxCell id="a7ovupwX-SFJbcE_QBLs-102" value="&lt;u&gt;MatchId&lt;/u&gt;" style="ellipse;whiteSpace=wrap;html=1;" vertex="1" parent="1">
          <mxGeometry y="260" width="60" height="40" as="geometry" />
        </mxCell>
        <mxCell id="a7ovupwX-SFJbcE_QBLs-105" value="" style="endArrow=none;html=1;rounded=0;exitX=1;exitY=0.5;exitDx=0;exitDy=0;entryX=0.5;entryY=0;entryDx=0;entryDy=0;" edge="1" parent="1" source="a7ovupwX-SFJbcE_QBLs-102" target="a7ovupwX-SFJbcE_QBLs-3">
          <mxGeometry width="50" height="50" relative="1" as="geometry">
            <mxPoint x="400" y="430" as="sourcePoint" />
            <mxPoint x="450" y="380" as="targetPoint" />
          </mxGeometry>
        </mxCell>
        <mxCell id="a7ovupwX-SFJbcE_QBLs-107" value="" style="endArrow=none;html=1;rounded=0;exitX=1;exitY=0.5;exitDx=0;exitDy=0;entryX=0;entryY=0.5;entryDx=0;entryDy=0;" edge="1" parent="1" source="a7ovupwX-SFJbcE_QBLs-101" target="a7ovupwX-SFJbcE_QBLs-3">
          <mxGeometry width="50" height="50" relative="1" as="geometry">
            <mxPoint x="400" y="430" as="sourcePoint" />
            <mxPoint x="450" y="380" as="targetPoint" />
          </mxGeometry>
        </mxCell>
        <mxCell id="a7ovupwX-SFJbcE_QBLs-108" value="" style="endArrow=none;html=1;rounded=0;exitX=1;exitY=0.5;exitDx=0;exitDy=0;entryX=0;entryY=0.5;entryDx=0;entryDy=0;" edge="1" parent="1" source="a7ovupwX-SFJbcE_QBLs-100" target="a7ovupwX-SFJbcE_QBLs-3">
          <mxGeometry width="50" height="50" relative="1" as="geometry">
            <mxPoint x="400" y="430" as="sourcePoint" />
            <mxPoint x="450" y="380" as="targetPoint" />
          </mxGeometry>
        </mxCell>
        <mxCell id="a7ovupwX-SFJbcE_QBLs-109" value="" style="endArrow=none;html=1;rounded=0;exitX=1;exitY=0.5;exitDx=0;exitDy=0;entryX=0.5;entryY=1;entryDx=0;entryDy=0;" edge="1" parent="1" source="a7ovupwX-SFJbcE_QBLs-99" target="a7ovupwX-SFJbcE_QBLs-3">
          <mxGeometry width="50" height="50" relative="1" as="geometry">
            <mxPoint x="400" y="430" as="sourcePoint" />
            <mxPoint x="450" y="380" as="targetPoint" />
          </mxGeometry>
        </mxCell>
        <mxCell id="a7ovupwX-SFJbcE_QBLs-110" value="dien ra&amp;nbsp;" style="rhombus;whiteSpace=wrap;html=1;" vertex="1" parent="1">
          <mxGeometry x="130" y="410" width="90" height="50" as="geometry" />
        </mxCell>
        <mxCell id="a7ovupwX-SFJbcE_QBLs-111" value="" style="shape=link;html=1;rounded=0;exitX=0.75;exitY=1;exitDx=0;exitDy=0;entryX=0.5;entryY=0;entryDx=0;entryDy=0;" edge="1" parent="1" source="a7ovupwX-SFJbcE_QBLs-3" target="a7ovupwX-SFJbcE_QBLs-110">
          <mxGeometry width="100" relative="1" as="geometry">
            <mxPoint x="370" y="410" as="sourcePoint" />
            <mxPoint x="470" y="410" as="targetPoint" />
          </mxGeometry>
        </mxCell>
        <mxCell id="a7ovupwX-SFJbcE_QBLs-125" value="1&lt;br&gt;" style="edgeLabel;html=1;align=center;verticalAlign=middle;resizable=0;points=[];" connectable="0" vertex="1" parent="a7ovupwX-SFJbcE_QBLs-111">
          <mxGeometry x="-0.1554" y="1" relative="1" as="geometry">
            <mxPoint x="1" as="offset" />
          </mxGeometry>
        </mxCell>
        <mxCell id="a7ovupwX-SFJbcE_QBLs-112" value="" style="shape=link;html=1;rounded=0;exitX=1;exitY=0;exitDx=0;exitDy=0;entryX=0.5;entryY=1;entryDx=0;entryDy=0;" edge="1" parent="1" source="a7ovupwX-SFJbcE_QBLs-7" target="a7ovupwX-SFJbcE_QBLs-110">
          <mxGeometry width="100" relative="1" as="geometry">
            <mxPoint x="370" y="410" as="sourcePoint" />
            <mxPoint x="470" y="410" as="targetPoint" />
          </mxGeometry>
        </mxCell>
        <mxCell id="a7ovupwX-SFJbcE_QBLs-126" value="1" style="edgeLabel;html=1;align=center;verticalAlign=middle;resizable=0;points=[];" connectable="0" vertex="1" parent="a7ovupwX-SFJbcE_QBLs-112">
          <mxGeometry x="0.0537" y="-3" relative="1" as="geometry">
            <mxPoint as="offset" />
          </mxGeometry>
        </mxCell>
        <mxCell id="a7ovupwX-SFJbcE_QBLs-116" value="Thuoc" style="rhombus;whiteSpace=wrap;html=1;" vertex="1" parent="1">
          <mxGeometry x="330" y="380" width="90" height="50" as="geometry" />
        </mxCell>
        <mxCell id="a7ovupwX-SFJbcE_QBLs-117" value="" style="shape=link;html=1;rounded=0;exitX=1;exitY=0.5;exitDx=0;exitDy=0;" edge="1" parent="1" source="a7ovupwX-SFJbcE_QBLs-3">
          <mxGeometry width="100" relative="1" as="geometry">
            <mxPoint x="370" y="410" as="sourcePoint" />
            <mxPoint x="230" y="355" as="targetPoint" />
            <Array as="points" />
          </mxGeometry>
        </mxCell>
        <mxCell id="a7ovupwX-SFJbcE_QBLs-118" value="" style="shape=link;html=1;rounded=0;exitX=0.5;exitY=1;exitDx=0;exitDy=0;entryX=0.5;entryY=0;entryDx=0;entryDy=0;" edge="1" parent="1" source="a7ovupwX-SFJbcE_QBLs-116" target="a7ovupwX-SFJbcE_QBLs-1">
          <mxGeometry width="100" relative="1" as="geometry">
            <mxPoint x="370" y="410" as="sourcePoint" />
            <mxPoint x="470" y="410" as="targetPoint" />
          </mxGeometry>
        </mxCell>
        <mxCell id="a7ovupwX-SFJbcE_QBLs-123" value="1" style="edgeLabel;html=1;align=center;verticalAlign=middle;resizable=0;points=[];" connectable="0" vertex="1" parent="a7ovupwX-SFJbcE_QBLs-118">
          <mxGeometry x="-0.0556" y="2" relative="1" as="geometry">
            <mxPoint x="-5" y="1" as="offset" />
          </mxGeometry>
        </mxCell>
        <mxCell id="a7ovupwX-SFJbcE_QBLs-119" value="N" style="text;html=1;strokeColor=none;fillColor=none;align=center;verticalAlign=middle;whiteSpace=wrap;rounded=0;" vertex="1" parent="1">
          <mxGeometry x="220" y="345" width="30" height="20" as="geometry" />
        </mxCell>
        <mxCell id="a7ovupwX-SFJbcE_QBLs-120" value="" style="shape=link;html=1;rounded=0;exitX=1;exitY=0.5;exitDx=0;exitDy=0;entryX=0.5;entryY=0;entryDx=0;entryDy=0;" edge="1" parent="1" source="a7ovupwX-SFJbcE_QBLs-119" target="a7ovupwX-SFJbcE_QBLs-116">
          <mxGeometry width="100" relative="1" as="geometry">
            <mxPoint x="370" y="410" as="sourcePoint" />
            <mxPoint x="470" y="410" as="targetPoint" />
            <Array as="points">
              <mxPoint x="285" y="355" />
            </Array>
          </mxGeometry>
        </mxCell>
        <mxCell id="a7ovupwX-SFJbcE_QBLs-130" value="Giua" style="rhombus;whiteSpace=wrap;html=1;" vertex="1" parent="1">
          <mxGeometry x="340" y="295" width="90" height="50" as="geometry" />
        </mxCell>
        <mxCell id="a7ovupwX-SFJbcE_QBLs-131" value="" style="shape=link;html=1;rounded=0;exitX=0.5;exitY=0;exitDx=0;exitDy=0;entryX=0;entryY=1;entryDx=0;entryDy=0;" edge="1" parent="1" source="a7ovupwX-SFJbcE_QBLs-3" target="a7ovupwX-SFJbcE_QBLs-130">
          <mxGeometry width="100" relative="1" as="geometry">
            <mxPoint x="370" y="310" as="sourcePoint" />
            <mxPoint x="470" y="310" as="targetPoint" />
          </mxGeometry>
        </mxCell>
        <mxCell id="a7ovupwX-SFJbcE_QBLs-133" value="1" style="edgeLabel;html=1;align=center;verticalAlign=middle;resizable=0;points=[];" connectable="0" vertex="1" parent="a7ovupwX-SFJbcE_QBLs-131">
          <mxGeometry x="-0.16" y="-3" relative="1" as="geometry">
            <mxPoint as="offset" />
          </mxGeometry>
        </mxCell>
        <mxCell id="a7ovupwX-SFJbcE_QBLs-132" value="" style="shape=link;html=1;rounded=0;exitX=1;exitY=0;exitDx=0;exitDy=0;entryX=0;entryY=0.75;entryDx=0;entryDy=0;" edge="1" parent="1" source="a7ovupwX-SFJbcE_QBLs-130" target="a7ovupwX-SFJbcE_QBLs-4">
          <mxGeometry width="100" relative="1" as="geometry">
            <mxPoint x="370" y="310" as="sourcePoint" />
            <mxPoint x="470" y="310" as="targetPoint" />
          </mxGeometry>
        </mxCell>
        <mxCell id="a7ovupwX-SFJbcE_QBLs-134" value="2" style="edgeLabel;html=1;align=center;verticalAlign=middle;resizable=0;points=[];" connectable="0" vertex="1" parent="a7ovupwX-SFJbcE_QBLs-132">
          <mxGeometry x="0.0651" y="2" relative="1" as="geometry">
            <mxPoint as="offset" />
          </mxGeometry>
        </mxCell>
        <mxCell id="a7ovupwX-SFJbcE_QBLs-135" value="vodich" style="rounded=1;whiteSpace=wrap;html=1;" vertex="1" parent="1">
          <mxGeometry x="80" y="205" width="80" height="30" as="geometry" />
        </mxCell>
        <mxCell id="a7ovupwX-SFJbcE_QBLs-136" value="&lt;u&gt;id&lt;/u&gt;" style="ellipse;whiteSpace=wrap;html=1;" vertex="1" parent="1">
          <mxGeometry x="70" y="135" width="60" height="40" as="geometry" />
        </mxCell>
        <mxCell id="a7ovupwX-SFJbcE_QBLs-137" value="year" style="ellipse;whiteSpace=wrap;html=1;" vertex="1" parent="1">
          <mxGeometry y="185" width="60" height="40" as="geometry" />
        </mxCell>
        <mxCell id="a7ovupwX-SFJbcE_QBLs-138" value="" style="endArrow=none;html=1;rounded=0;exitX=1;exitY=1;exitDx=0;exitDy=0;entryX=0;entryY=0.5;entryDx=0;entryDy=0;" edge="1" parent="1" source="a7ovupwX-SFJbcE_QBLs-137" target="a7ovupwX-SFJbcE_QBLs-135">
          <mxGeometry width="50" height="50" relative="1" as="geometry">
            <mxPoint x="390" y="330" as="sourcePoint" />
            <mxPoint x="440" y="280" as="targetPoint" />
          </mxGeometry>
        </mxCell>
        <mxCell id="a7ovupwX-SFJbcE_QBLs-139" value="" style="endArrow=none;html=1;rounded=0;entryX=1;entryY=1;entryDx=0;entryDy=0;exitX=0.5;exitY=0;exitDx=0;exitDy=0;" edge="1" parent="1" source="a7ovupwX-SFJbcE_QBLs-135" target="a7ovupwX-SFJbcE_QBLs-136">
          <mxGeometry width="50" height="50" relative="1" as="geometry">
            <mxPoint x="390" y="330" as="sourcePoint" />
            <mxPoint x="440" y="280" as="targetPoint" />
          </mxGeometry>
        </mxCell>
        <mxCell id="a7ovupwX-SFJbcE_QBLs-143" value="Cua" style="rhombus;whiteSpace=wrap;html=1;" vertex="1" parent="1">
          <mxGeometry x="145" y="270" width="90" height="50" as="geometry" />
        </mxCell>
        <mxCell id="a7ovupwX-SFJbcE_QBLs-144" value="" style="shape=link;html=1;rounded=0;exitX=1;exitY=1;exitDx=0;exitDy=0;entryX=0;entryY=0;entryDx=0;entryDy=0;" edge="1" parent="1" source="a7ovupwX-SFJbcE_QBLs-135" target="a7ovupwX-SFJbcE_QBLs-143">
          <mxGeometry width="100" relative="1" as="geometry">
            <mxPoint x="370" y="310" as="sourcePoint" />
            <mxPoint x="470" y="310" as="targetPoint" />
          </mxGeometry>
        </mxCell>
        <mxCell id="a7ovupwX-SFJbcE_QBLs-147" value="1" style="edgeLabel;html=1;align=center;verticalAlign=middle;resizable=0;points=[];" connectable="0" vertex="1" parent="a7ovupwX-SFJbcE_QBLs-144">
          <mxGeometry x="0.2373" y="-2" relative="1" as="geometry">
            <mxPoint as="offset" />
          </mxGeometry>
        </mxCell>
        <mxCell id="a7ovupwX-SFJbcE_QBLs-145" value="" style="shape=link;html=1;rounded=0;exitX=1;exitY=1;exitDx=0;exitDy=0;entryX=0.5;entryY=0;entryDx=0;entryDy=0;" edge="1" parent="1" source="a7ovupwX-SFJbcE_QBLs-143" target="a7ovupwX-SFJbcE_QBLs-1">
          <mxGeometry width="100" relative="1" as="geometry">
            <mxPoint x="370" y="310" as="sourcePoint" />
            <mxPoint x="470" y="310" as="targetPoint" />
          </mxGeometry>
        </mxCell>
        <mxCell id="a7ovupwX-SFJbcE_QBLs-146" value="1" style="edgeLabel;html=1;align=center;verticalAlign=middle;resizable=0;points=[];" connectable="0" vertex="1" parent="a7ovupwX-SFJbcE_QBLs-145">
          <mxGeometry x="0.0723" y="-1" relative="1" as="geometry">
            <mxPoint as="offset" />
          </mxGeometry>
        </mxCell>
        <mxCell id="a7ovupwX-SFJbcE_QBLs-148" value="thuoc" style="rhombus;whiteSpace=wrap;html=1;" vertex="1" parent="1">
          <mxGeometry x="290" y="220" width="90" height="50" as="geometry" />
        </mxCell>
        <mxCell id="a7ovupwX-SFJbcE_QBLs-149" value="" style="shape=link;html=1;rounded=0;exitX=1;exitY=0.5;exitDx=0;exitDy=0;entryX=0;entryY=0.5;entryDx=0;entryDy=0;" edge="1" parent="1" source="a7ovupwX-SFJbcE_QBLs-135" target="a7ovupwX-SFJbcE_QBLs-148">
          <mxGeometry width="100" relative="1" as="geometry">
            <mxPoint x="370" y="310" as="sourcePoint" />
            <mxPoint x="470" y="310" as="targetPoint" />
          </mxGeometry>
        </mxCell>
        <mxCell id="a7ovupwX-SFJbcE_QBLs-151" value="1" style="edgeLabel;html=1;align=center;verticalAlign=middle;resizable=0;points=[];" connectable="0" vertex="1" parent="a7ovupwX-SFJbcE_QBLs-149">
          <mxGeometry x="-0.1773" y="-3" relative="1" as="geometry">
            <mxPoint y="-1" as="offset" />
          </mxGeometry>
        </mxCell>
        <mxCell id="a7ovupwX-SFJbcE_QBLs-150" value="" style="shape=link;html=1;rounded=0;exitX=1;exitY=0.5;exitDx=0;exitDy=0;entryX=0;entryY=0.75;entryDx=0;entryDy=0;" edge="1" parent="1" source="a7ovupwX-SFJbcE_QBLs-148" target="a7ovupwX-SFJbcE_QBLs-4">
          <mxGeometry width="100" relative="1" as="geometry">
            <mxPoint x="370" y="310" as="sourcePoint" />
            <mxPoint x="470" y="310" as="targetPoint" />
          </mxGeometry>
        </mxCell>
        <mxCell id="a7ovupwX-SFJbcE_QBLs-152" value="1" style="edgeLabel;html=1;align=center;verticalAlign=middle;resizable=0;points=[];" connectable="0" vertex="1" parent="a7ovupwX-SFJbcE_QBLs-150">
          <mxGeometry x="-0.0566" y="1" relative="1" as="geometry">
            <mxPoint as="offset" />
          </mxGeometry>
        </mxCell>
      </root>
    </mxGraphModel>
  </diagram>
</mxfile>
